<svg width="115" height="106" viewBox="0 0 115 106" fill="none" xmlns="http://www.w3.org/2000/svg">
<mask id="mask0_1_931" style="mask-type:alpha" maskUnits="userSpaceOnUse" x="11" y="5" width="99" height="91">
<path d="M108.678 47.0517C105.801 60.6893 94.9597 73.0191 76.453 83.7315C68.0505 88.5908 59.1755 92.5829 49.9651 95.6462C49.3708 95.8264 48.7406 95.8537 48.1329 95.7255C47.5252 95.5972 46.9597 95.3177 46.4888 94.9127C44.7981 93.4388 5.65146 58.7845 12.4125 26.7405C13.5966 21.1281 16.5166 16.0306 20.7589 12.17C25.0011 8.30942 30.3505 5.88147 36.0493 5.23007C41.7481 4.57868 47.5074 5.73687 52.5114 8.54058C57.5154 11.3443 61.5104 15.6514 63.9305 20.8518C68.2453 17.0724 73.6398 14.7464 79.3499 14.2033C85.0601 13.6601 90.7964 14.9274 95.7463 17.8256C100.696 20.7237 104.609 25.1059 106.93 30.3513C109.251 35.5966 109.862 41.4393 108.678 47.0517Z" fill="black"/>
</mask>
<g mask="url(#mask0_1_931)">
<path d="M108.678 47.0517C105.801 60.6893 94.9597 73.0191 76.453 83.7315C68.0505 88.5908 59.1755 92.5829 49.9651 95.6462C49.3708 95.8264 48.7406 95.8537 48.1329 95.7255C47.5252 95.5972 46.9597 95.3177 46.4888 94.9127C44.7981 93.4388 5.65146 58.7845 12.4125 26.7405C13.5966 21.1281 16.5166 16.0306 20.7589 12.17C25.0011 8.30942 30.3505 5.88147 36.0493 5.23007C41.7481 4.57868 47.5074 5.73687 52.5114 8.54058C57.5154 11.3443 61.5104 15.6514 63.9305 20.8518C68.2453 17.0724 73.6398 14.7464 79.3499 14.2033C85.0601 13.6601 90.7964 14.9274 95.7463 17.8256C100.696 20.7237 104.609 25.1059 106.93 30.3513C109.251 35.5966 109.862 41.4393 108.678 47.0517Z" fill="#5843EF"/>
<g filter="url(#filter0_f_1_931)">
<ellipse cx="78.7086" cy="94.7285" rx="29.7118" ry="27.4694" transform="rotate(11.9141 78.7086 94.7285)" fill="#C01B49"/>
</g>
<g filter="url(#filter1_f_1_931)">
<ellipse cx="79.086" cy="90.2251" rx="47.2846" ry="42.6874" transform="rotate(11.9141 79.086 90.2251)" fill="#C01B49" fill-opacity="0.76"/>
</g>
<path d="M47.7152 34.0756C47.4475 34.2564 46.9002 36.4876 45.6113 42.5966L43.8643 50.8766L43.0585 50.7066C42.0331 50.4902 40.114 51.2455 39.3585 52.1672C38.4627 53.2702 38.2382 55.5431 38.9583 56.7234C40.0442 58.5873 42.0938 59.3889 44.2357 58.7861C46.3722 58.2086 46.5955 57.7547 48.1108 51.298L49.4153 45.7196L51.0756 47.5201C51.9902 48.5041 52.8878 49.3263 53.0534 49.3876C53.2975 49.4391 53.5488 48.4902 54.2136 45.0972L55.0565 40.7398L51.9671 37.3722C50.2686 35.5108 48.7069 33.9684 48.4627 33.9169C48.243 33.8705 47.9234 33.9349 47.7152 34.0756Z" fill="white"/>
<path d="M65.5699 41.858C61.3663 43.3599 57.6165 44.8263 57.2406 45.1145C56.5297 45.6208 56.5138 45.6962 54.9231 53.2358L53.3111 60.8759L52.3437 60.8556C50.9885 60.8059 49.6676 61.341 48.7965 62.2335C48.2206 62.847 48.0497 63.2835 47.8918 64.4052C47.6941 65.9648 48.2851 67.2708 49.591 68.1763C51.2819 69.3731 54.0902 69.2568 55.5252 67.9321C56.3089 67.2049 56.3195 67.1546 57.9592 59.7566L59.6095 52.3083L63.8079 50.8316C66.1347 50.01 68.1121 49.3509 68.1875 49.3668C68.263 49.3827 68.0415 50.806 67.6756 52.5401L67.0127 55.6816L66.2585 55.5225C65.2779 55.3156 64.2164 55.6166 63.0793 56.4005C62.3434 56.9015 62.1024 57.2969 61.7579 58.4318C61.2504 60.2147 61.6655 61.4836 63.1697 62.6935C65.1939 64.3019 67.993 64.105 69.5143 62.2471C70.3007 61.258 70.3219 61.1575 72.5331 50.6774C74.8875 39.5188 74.8928 39.4937 73.7362 39.2497C73.4596 39.1913 69.7736 40.3561 65.5699 41.858Z" fill="white"/>
</g>
<defs>
<filter id="filter0_f_1_931" x="16.0834" y="34.1538" width="125.25" height="121.149" filterUnits="userSpaceOnUse" color-interpolation-filters="sRGB">
<feFlood flood-opacity="0" result="BackgroundImageFix"/>
<feBlend mode="normal" in="SourceGraphic" in2="BackgroundImageFix" result="shape"/>
<feGaussianBlur stdDeviation="16.5" result="effect1_foregroundBlur_1_931"/>
</filter>
<filter id="filter1_f_1_931" x="-5.02045" y="10.322" width="168.213" height="159.806" filterUnits="userSpaceOnUse" color-interpolation-filters="sRGB">
<feFlood flood-opacity="0" result="BackgroundImageFix"/>
<feBlend mode="normal" in="SourceGraphic" in2="BackgroundImageFix" result="shape"/>
<feGaussianBlur stdDeviation="18.5" result="effect1_foregroundBlur_1_931"/>
</filter>
</defs>
</svg>
