<svg width="60" height="60" viewBox="0 0 60 60" fill="none" xmlns="http://www.w3.org/2000/svg">
<g clip-path="url(#clip0_41_8776)">
<path d="M17.7075 54.5325C15.8625 54.5325 14.115 54.125 12.545 53.3975L5 55L6.5775 47.44C5.845 45.865 5.435 44.11 5.435 42.26C5.435 35.49 10.9225 30 17.695 30C24.4675 30 29.955 35.49 29.955 42.26C29.955 49.03 24.465 54.52 17.695 54.52" stroke="#DB2833" stroke-width="1.5" stroke-linecap="round" stroke-linejoin="round"/>
<path d="M16.53 30.0475C15.5475 27.91 15 25.5675 15 23.1C15 13.0575 23.995 5 35 5C46.005 5 55 13.0575 55 23.1C55 29.035 51.845 34.26 47.0025 37.555C47.005 39.445 47 41.9925 47 44.6675L39.1525 40.8025C37.81 41.06 36.4225 41.2 35 41.2C33.2225 41.2 31.505 40.97 29.86 40.575" stroke="#DB2833" stroke-width="1.5" stroke-linecap="round" stroke-linejoin="round"/>
<path d="M11.9888 42.4116C12.0376 42.4604 12.0376 42.5396 11.9888 42.5884C11.94 42.6372 11.8608 42.6372 11.812 42.5884C11.7632 42.5396 11.7632 42.4604 11.812 42.4116C11.8608 42.3628 11.94 42.3628 11.9888 42.4116Z" stroke="#DB2833" stroke-width="1.5" stroke-linecap="round" stroke-linejoin="round"/>
<path d="M17.6138 42.4116C17.6626 42.4604 17.6626 42.5396 17.6138 42.5884C17.565 42.6372 17.4858 42.6372 17.437 42.5884C17.3882 42.5396 17.3882 42.4604 17.437 42.4116C17.4858 42.3628 17.565 42.3628 17.6138 42.4116Z" stroke="#DB2833" stroke-width="1.5" stroke-linecap="round" stroke-linejoin="round"/>
<path d="M23.2388 42.4116C23.2876 42.4604 23.2876 42.5396 23.2388 42.5884C23.19 42.6372 23.1108 42.6372 23.062 42.5884C23.0132 42.5396 23.0132 42.4604 23.062 42.4116C23.1108 42.3628 23.19 42.3628 23.2388 42.4116Z" stroke="#DB2833" stroke-width="1.5" stroke-linecap="round" stroke-linejoin="round"/>
<path d="M34.9991 25.1097C34.9991 23.4672 36.0141 22.5772 37.0316 21.8922C38.0266 21.2222 39.0216 20.3497 39.0216 18.7422C39.0216 16.5197 37.2216 14.7197 34.9991 14.7197C32.7766 14.7197 30.9766 16.5197 30.9766 18.7422" stroke="#DB2833" stroke-width="1.5" stroke-linecap="round" stroke-linejoin="round"/>
<path d="M35 31.1445C34.8625 31.1445 34.75 31.257 34.75 31.3945C34.75 31.532 34.8625 31.6445 35 31.6445C35.1375 31.6445 35.25 31.532 35.25 31.3945C35.25 31.257 35.1375 31.1445 35 31.1445Z" stroke="#DB2833" stroke-width="1.5" stroke-linecap="round" stroke-linejoin="round"/>
</g>
<defs>
<clipPath id="clip0_41_8776">
<rect width="60" height="60" fill="white"/>
</clipPath>
</defs>
</svg>
