<svg width="64" height="61" viewBox="0 0 64 61" fill="none" xmlns="http://www.w3.org/2000/svg">
<g clip-path="url(#clip0_1_1136)">
<path d="M15.9913 15.3307C16.1612 15.0923 16.1809 14.9791 16.2647 14.9005C22.9431 10.951 30.0774 9.68225 37.6134 11.8077C39.5177 12.3398 41.2447 13.3539 42.7327 14.7343C45.9477 17.6653 46.8373 22.148 45.0096 26.0729C44.0686 28.1239 42.8098 29.9209 40.7898 31.0597C39.7921 30.6866 38.8116 30.2815 37.8434 30.0068C36.2618 29.5664 34.7123 29.6796 33.3007 30.6102C32.239 31.2755 31.7217 32.2345 31.9582 33.0223C32.2687 34.0564 33.1654 34.5401 34.1262 34.5219C35.4614 34.4993 36.8016 34.3144 38.0949 34.0629C38.93 33.8943 39.7553 33.5142 40.546 33.1979C43.8719 35.6935 43.5642 39.9431 39.8518 43.2227C39.2704 43.0742 38.657 42.9084 38.0584 42.7918C35.8239 42.4119 33.7448 42.8172 32.0376 44.3724C31.3848 44.9694 30.8577 45.7167 31.1854 46.7188C31.4391 47.4747 32.3359 47.9584 33.5085 47.9307C35.366 47.8597 37.0313 47.1486 38.6202 46.2724C39.1671 45.9484 39.714 45.6244 40.2289 45.2831C45.4886 48.9457 46.7528 56.1066 41.8555 59.82C42.2891 60.0126 42.6241 60.2346 42.8853 60.2104C43.1957 60.1715 43.5135 59.889 43.7327 59.6359C45.7108 57.1952 46.7527 54.4971 45.8879 51.3482C45.2595 48.9872 44.0351 46.9649 42.3647 45.156C42.1282 44.9046 41.8917 44.6532 41.6724 44.3699C41.6404 44.3526 41.6429 44.2714 41.6158 44.0917C41.803 43.8213 41.9926 43.4697 42.2464 43.1526C45.2295 39.2319 45.2835 36.3724 42.3493 32.231C42.6843 31.9166 43.0538 31.5381 43.4381 31.209C45.5985 29.1967 46.9903 26.7699 47.5025 23.8274C48.3473 19.0421 46.2703 14.5379 42.0058 11.8662C39.69 10.4106 37.16 9.58235 34.4526 9.23613C27.902 8.4263 21.7802 9.58095 16.2006 13.2565C15.9025 13.4258 15.6192 13.6444 15.3211 13.8137C15.2719 13.8284 15.1906 13.8258 14.9467 13.8181C15.2767 12.593 15.9246 11.622 16.5404 10.6336C17.107 9.65993 17.7548 8.68885 18.4051 7.63656C17.5207 7.28329 16.959 7.55805 16.4738 7.99782C15.9367 8.53348 15.3357 9.0346 14.9588 9.65664C13.9636 11.3483 12.9832 13.0891 12.1309 14.8991C11.4856 16.3254 12.0152 17.1064 13.4638 17.1037C16.5407 17.0714 19.6349 17.0073 22.7291 16.9431C23.2341 16.9267 23.7095 16.8117 24.3476 16.7019C23.9706 15.7145 23.3203 15.6938 22.7192 15.6585C20.5069 15.6206 18.3464 15.4869 15.9913 15.3307ZM32.6634 46.2781C34.1415 44.2279 36.2921 43.6135 38.3294 44.5887C36.5755 45.5409 34.9521 46.4809 32.6634 46.2781ZM33.5275 32.7959C34.9932 31.1517 36.757 30.9477 38.6072 32.1933C36.9271 32.8552 35.3973 33.3918 33.5275 32.7959Z" fill="white"/>
</g>
<defs>
<clipPath id="clip0_1_1136">
<rect width="42.3147" height="49.3672" fill="white" transform="matrix(0.474752 -0.88012 -0.88012 -0.474752 43.4492 60.6797)"/>
</clipPath>
</defs>
</svg>
