<svg width="182" height="35" viewBox="0 0 182 35" fill="none" xmlns="http://www.w3.org/2000/svg">
<path d="M5.03879 0.316135C4.80319 0.551733 4.72466 2.88154 4.72466 9.21652V17.8028H3.8608C2.76134 17.8028 0.955083 18.9546 0.379175 20.0279C-0.301442 21.3106 -0.0396661 23.6142 0.955083 24.6351C2.47338 26.2581 4.75083 26.6246 6.81886 25.5775C8.8869 24.5566 9.01778 24.0592 9.17485 17.3316L9.30574 11.5201L11.3999 12.9599C12.5518 13.7452 13.6512 14.3735 13.8345 14.3997C14.0962 14.3997 14.1486 13.4049 14.0962 9.89714L14.0177 5.39459L10.1172 2.6983C7.97068 1.20617 6.03354 0.00200462 5.77176 0.00200462C5.53616 0.00200462 5.22203 0.132893 5.03879 0.316135Z" fill="white"/>
<path d="M23.9379 4.31994C20.0636 6.7021 16.6343 8.95337 16.3202 9.31986C15.7181 9.9743 15.7181 10.0528 15.7181 17.9061V25.8641L14.7495 26.0473C13.3883 26.2829 12.1841 27.0944 11.5035 28.1677C11.0585 28.9007 10.9799 29.3719 11.0585 30.5237C11.1894 32.1205 12.0532 33.2985 13.5453 33.9268C15.4825 34.7645 18.2573 34.0577 19.4091 32.4347C20.0374 31.5446 20.0374 31.4923 20.1159 23.7699L20.1945 15.9951L24.0687 13.6392C26.2153 12.3303 28.0477 11.257 28.1263 11.257C28.2048 11.257 28.2833 12.7229 28.2833 14.5292V17.8014H27.498C26.4771 17.8014 25.4823 18.325 24.5138 19.3459C23.8855 20.0003 23.7284 20.4453 23.6237 21.6495C23.4928 23.5343 24.1735 24.7123 25.9274 25.6023C28.2833 26.7803 31.032 25.995 32.1576 23.8222C32.7335 22.6704 32.7335 22.5657 32.7335 11.6497C32.7335 0.0268097 32.7335 0.00063324 31.5294 0.00063324C31.2414 0.00063324 27.8121 1.93777 23.9379 4.31994Z" fill="white"/>
<path d="M74.9601 0.419343C73.6512 1.07378 73.2324 1.70205 73.1015 3.24652C72.9968 4.5554 73.0492 4.71247 73.8868 5.62868C74.6983 6.51872 74.9601 6.64961 76.269 6.75432C78.0753 6.88521 79.1485 6.49255 79.9077 5.41926C80.7192 4.29363 80.6668 2.30413 79.8292 1.38791C78.5726 0.0528569 76.557 -0.365985 74.9601 0.419343Z" fill="white"/>
<path d="M61.739 8.68987C58.6762 9.08254 57.0794 10.7055 57.0794 13.3757C57.0794 15.6531 58.2836 17.0929 61.1369 18.1662C62.1579 18.5588 63.2835 19.0038 63.6762 19.1347C64.4615 19.4489 64.7233 19.8939 64.4091 20.4174C64.0688 20.9672 62.1317 20.496 59.9851 19.3442C58.938 18.7682 57.9956 18.3756 57.9171 18.4279C57.603 18.7683 55.8229 22.9043 55.9276 23.0614C56.1632 23.454 60.1422 24.8415 61.8961 25.1556C62.8647 25.3127 64.6447 25.3912 65.8227 25.3388C69.6185 25.1294 71.2153 23.6635 71.2153 20.2866C71.2153 17.3547 70.2991 16.4384 65.718 14.7893C64.2259 14.2657 63.4667 13.8469 63.4144 13.5327C63.362 13.2971 63.4929 13.0092 63.7285 12.9306C64.3044 12.7212 66.7913 13.5066 67.9169 14.2657C68.4405 14.6322 68.9902 14.9201 69.0949 14.9201C69.2258 14.9201 69.6708 13.9516 70.0897 12.7474C71.0321 10.182 71.0582 10.2344 67.9431 9.29196C65.5348 8.55898 63.8332 8.40192 61.739 8.68987Z" fill="white"/>
<path d="M90.4564 8.66675C87.7601 8.98088 85.8754 9.8971 84.3309 11.6772C82.9958 13.1693 82.6293 14.2426 82.6293 16.6247C82.6293 20.8655 84.933 23.6403 89.2784 24.6089C91.1371 25.0277 94.8805 24.8445 96.1632 24.2686L97.1317 23.8498V20.8393C97.1317 19.164 97.0532 17.8027 96.9747 17.8027C96.8699 17.8027 96.4249 18.143 95.9276 18.5881C94.9328 19.4519 93.6763 19.7661 92.1056 19.5566C89.0952 19.164 88.6502 15.3682 91.4774 14.1117C93.0742 13.4049 95.0113 13.8499 96.5558 15.2635L97.1317 15.7871V12.6457V9.47826L95.9014 9.08559C94.2784 8.56204 92.4198 8.43115 90.4564 8.66675Z" fill="white"/>
<path d="M105.404 8.66489C103.676 8.92667 101.896 10.1047 100.875 11.5968C98.8332 14.6334 99.1996 19.6595 101.634 22.1725C104.069 24.6856 108.964 24.895 111.608 22.5652C112.027 22.1987 112.053 22.2511 112.053 23.6647C112.053 26.2301 111.006 27.4866 108.859 27.4866C107.55 27.4866 106.556 26.8583 106.556 26.0468C106.556 25.7065 106.006 25.6542 103.257 25.6542H99.9326L100.116 26.7536C100.378 28.3504 101.556 30.3399 102.734 31.2038C106.425 33.8739 114.252 33.2718 116.765 30.1043C118.388 28.0625 118.44 27.7222 118.545 17.8532L118.623 8.90049H115.351H112.053V9.84289V10.7853L111.163 9.99995C109.775 8.79578 107.707 8.29841 105.404 8.66489ZM111.294 14.6334C112.288 15.6543 112.315 16.9108 111.372 18.0365C110.796 18.7433 110.535 18.848 109.435 18.848C107.76 18.848 106.817 17.9579 106.817 16.3611C106.817 15.4187 106.948 15.1046 107.629 14.5549C108.781 13.5863 110.273 13.6125 111.294 14.6334Z" fill="white"/>
<path d="M131.057 8.63958C130.638 8.77047 129.853 9.24166 129.277 9.68668L128.282 10.4982V9.68668V8.90135H125.01H121.738V16.7546V24.6079H125.01H128.282V20.943C128.282 17.0164 128.57 15.7337 129.539 15.2102C130.298 14.7913 131.476 14.8437 132.131 15.3149C132.706 15.7075 132.733 15.6814 134.041 12.9065C134.774 11.362 135.298 9.94846 135.246 9.79139C134.879 8.79664 132.549 8.16838 131.057 8.63958Z" fill="white"/>
<path d="M142.288 8.56238C140.77 8.87651 137.184 10.0545 137.236 10.2116C138.65 13.5361 139.173 14.4262 139.671 14.3214C139.958 14.2429 140.953 14.0073 141.869 13.7455C144.828 12.9602 146.869 13.6147 146.869 15.3162C146.869 15.9183 146.843 15.9183 145.639 15.5518C144.225 15.133 140.875 15.0806 139.487 15.4471C138.335 15.7874 137.053 16.8083 136.529 17.8292C136.032 18.7716 136.032 21.2847 136.529 22.2271C136.739 22.6459 137.262 23.2742 137.707 23.6407C139.801 25.4208 144.409 25.2375 146.32 23.3265L146.869 22.7768V23.693V24.6092H150.011H153.152V18.4575C153.152 11.599 153.1 11.311 151.45 10.0807C150.037 8.98122 147.707 8.37913 145.089 8.40531C143.833 8.43149 142.576 8.48384 142.288 8.56238ZM146.189 18.7455C146.765 18.9549 146.712 19.3475 146.032 20.0805C145.063 21.1014 142.943 20.8135 142.943 19.6355C142.943 19.3999 143.074 19.0858 143.257 18.9025C143.597 18.5622 145.482 18.4837 146.189 18.7455Z" fill="white"/>
<path d="M166.633 8.48251C166.502 8.53486 166.057 8.66575 165.638 8.74429C165.245 8.849 164.46 9.34637 163.884 9.84375L162.837 10.7861V9.84375V8.90135H159.696H156.555V16.7546V24.6079H159.696H162.837V19.9221C162.837 14.5557 162.942 13.718 163.753 13.1945C165.298 12.1736 165.717 13.561 165.717 19.8174V24.6079H169.12H172.523V19.2415C172.523 14.2154 172.549 13.8489 173.046 13.3515C173.675 12.7233 173.832 12.7233 174.512 13.1945C174.984 13.5348 175.01 13.9798 175.088 19.0844L175.167 24.6079H178.57H181.999L181.894 18.2468C181.79 11.1526 181.58 10.1317 180.01 9.18931C178.151 8.06367 175.01 8.29927 173.02 9.73903L171.921 10.5244L171.371 9.86992C171.083 9.50344 170.56 9.08459 170.272 8.92753C169.669 8.63958 167.078 8.32544 166.633 8.48251Z" fill="white"/>
<path d="M36.4524 14.9772C36.5309 20.841 36.5571 21.1289 37.1853 22.3854C38.0754 24.1655 39.4366 24.8723 42.0544 24.8723C44.3056 24.8723 45.1433 24.6105 46.2951 23.4849L47.1328 22.6734V23.642V24.6105H50.405H53.6772V16.7573V8.90398H50.4312H47.1852L47.0805 14.1133C47.0019 18.7991 46.9496 19.375 46.5046 19.8724C45.8501 20.6054 44.3842 20.6315 43.9915 19.9247C43.8344 19.6106 43.7297 17.2808 43.7297 14.1657V8.90398H40.0387H36.3477L36.4524 14.9772Z" fill="white"/>
<path d="M73.571 16.7546V24.6079H76.8432H80.1154V16.7546V8.90135H76.8432H73.571V16.7546Z" fill="white"/>
</svg>
