<svg width="28" height="28" viewBox="0 0 28 28" fill="none" xmlns="http://www.w3.org/2000/svg">
<path d="M12.5834 5.50005H16.8334L21.4942 0.825053C21.6259 0.692272 21.7826 0.58688 21.9552 0.514957C22.1279 0.443035 22.313 0.406006 22.5 0.406006C22.6871 0.406006 22.8722 0.443035 23.0449 0.514957C23.2175 0.58688 23.3742 0.692272 23.5059 0.825053L27.1609 4.49422C27.4247 4.75965 27.5728 5.11871 27.5728 5.49297C27.5728 5.86723 27.4247 6.22629 27.1609 6.49172L23.9167 9.75005H12.5834V12.5834C12.5834 12.9591 12.4341 13.3194 12.1684 13.5851C11.9028 13.8508 11.5424 14.0001 11.1667 14.0001C10.791 14.0001 10.4306 13.8508 10.165 13.5851C9.89929 13.3194 9.75004 12.9591 9.75004 12.5834V8.33339C9.75004 7.58194 10.0485 6.86127 10.5799 6.32992C11.1113 5.79856 11.8319 5.50005 12.5834 5.50005ZM4.08337 12.5834V18.2501L0.839202 21.4942C0.575347 21.7597 0.427246 22.1187 0.427246 22.493C0.427246 22.8672 0.575347 23.2263 0.839202 23.4917L4.4942 27.1609C4.6259 27.2937 4.78258 27.3991 4.95522 27.471C5.12785 27.5429 5.31302 27.5799 5.50004 27.5799C5.68705 27.5799 5.87222 27.5429 6.04485 27.471C6.21749 27.3991 6.37417 27.2937 6.50587 27.1609L12.5834 21.0834H18.25C18.6258 21.0834 18.9861 20.9341 19.2518 20.6685C19.5174 20.4028 19.6667 20.0424 19.6667 19.6667V18.2501H21.0834C21.4591 18.2501 21.8194 18.1008 22.0851 17.8351C22.3508 17.5694 22.5 17.2091 22.5 16.8334V15.4167H23.9167C24.2924 15.4167 24.6528 15.2675 24.9184 15.0018C25.1841 14.7361 25.3334 14.3758 25.3334 14.0001V12.5834H15.4167V14.0001C15.4167 14.7515 15.1182 15.4722 14.5868 16.0035C14.0555 16.5349 13.3348 16.8334 12.5834 16.8334H9.75004C8.99859 16.8334 8.27792 16.5349 7.74657 16.0035C7.21521 15.4722 6.9167 14.7515 6.9167 14.0001V9.75005L4.08337 12.5834Z" fill="white"/>
</svg>
