<svg width="17" height="27" viewBox="0 0 17 27" fill="none" xmlns="http://www.w3.org/2000/svg">
<path d="M10.11 3.40196C7.07507 5.27819 4.38878 7.05133 4.14271 7.33998C3.67107 7.85543 3.67107 7.91728 3.67107 14.1027V20.3705L2.91234 20.5148C1.84603 20.7004 0.902752 21.3396 0.369595 22.1849C0.0209918 22.7622 -0.0405264 23.1333 0.0209918 24.0405C0.123522 25.2982 0.800222 26.226 1.96907 26.7208C3.48651 27.3806 5.66015 26.8239 6.56242 25.5456C7.05457 24.8446 7.05457 24.8034 7.11608 18.7211L7.1776 12.5976L10.2125 10.7419C11.894 9.71104 13.3294 8.86571 13.3909 8.86571C13.4525 8.86571 13.514 10.0203 13.514 11.4429V14.0202H12.8988C12.0991 14.0202 11.3198 14.4325 10.5611 15.2366C10.069 15.7521 9.94592 16.1026 9.8639 17.051C9.76136 18.5355 10.2945 19.4633 11.6684 20.1643C13.514 21.0921 15.6671 20.4736 16.5489 18.7623C17 17.8551 17 17.7726 17 9.17497C17 0.0206165 17 0 16.0567 0C15.8312 0 13.1449 1.52573 10.11 3.40196Z" fill="white"/>
</svg>
