<svg width="26" height="26" viewBox="0 0 26 26" fill="none" xmlns="http://www.w3.org/2000/svg">
<g clip-path="url(#clip0_1_587)">
<path fill-rule="evenodd" clip-rule="evenodd" d="M2.16669 5.41675C2.16669 4.55479 2.5091 3.72814 3.11859 3.11865C3.72808 2.50916 4.55473 2.16675 5.41669 2.16675H20.5834C21.4453 2.16675 22.272 2.50916 22.8814 3.11865C23.4909 3.72814 23.8334 4.55479 23.8334 5.41675V16.2501C23.8334 17.112 23.4909 17.9387 22.8814 18.5482C22.272 19.1577 21.4453 19.5001 20.5834 19.5001H7.9441L4.33335 22.2084C3.44069 22.8779 2.16669 22.2409 2.16669 21.1251V5.41675ZM7.58335 8.66675C7.58335 8.37943 7.69749 8.10388 7.90065 7.90072C8.10382 7.69755 8.37937 7.58342 8.66669 7.58342H17.3334C17.6207 7.58342 17.8962 7.69755 18.0994 7.90072C18.3025 8.10388 18.4167 8.37943 18.4167 8.66675C18.4167 8.95407 18.3025 9.22962 18.0994 9.43278C17.8962 9.63594 17.6207 9.75008 17.3334 9.75008H8.66669C8.37937 9.75008 8.10382 9.63594 7.90065 9.43278C7.69749 9.22962 7.58335 8.95407 7.58335 8.66675ZM8.66669 11.9167C8.37937 11.9167 8.10382 12.0309 7.90065 12.234C7.69749 12.4372 7.58335 12.7128 7.58335 13.0001C7.58335 13.2874 7.69749 13.5629 7.90065 13.7661C8.10382 13.9693 8.37937 14.0834 8.66669 14.0834H11.9167C12.204 14.0834 12.4796 13.9693 12.6827 13.7661C12.8859 13.5629 13 13.2874 13 13.0001C13 12.7128 12.8859 12.4372 12.6827 12.234C12.4796 12.0309 12.204 11.9167 11.9167 11.9167H8.66669Z" fill="white"/>
</g>
<defs>
<clipPath id="clip0_1_587">
<rect width="26" height="26" fill="white"/>
</clipPath>
</defs>
</svg>
