<svg width="29" height="29" viewBox="0 0 29 29" fill="none" xmlns="http://www.w3.org/2000/svg">
<path d="M3.62496 2.16282C2.81737 2.16282 2.1627 2.8175 2.1627 3.62508L2.1627 14.5001C2.1627 15.3077 2.81737 15.9623 3.62496 15.9623H12.0833C12.8909 15.9623 13.5456 15.3077 13.5456 14.5001V3.62508C13.5456 2.8175 12.8909 2.16282 12.0833 2.16282L3.62496 2.16282ZM10.621 13.0378H5.08722V5.08734H10.621V13.0378Z" fill="white" stroke="white" stroke-width="0.507861" stroke-linecap="round" stroke-linejoin="round"/>
<path d="M16.9167 2.16282C16.1091 2.16282 15.4544 2.8175 15.4544 3.62508V9.66675C15.4544 10.4743 16.1091 11.129 16.9167 11.129H25.375C26.1826 11.129 26.8373 10.4743 26.8373 9.66675V3.62508C26.8373 2.8175 26.1826 2.16282 25.375 2.16282L16.9167 2.16282ZM23.9128 8.20448H18.379V5.08734H23.9128V8.20448Z" fill="white" stroke="white" stroke-width="0.507861" stroke-linecap="round" stroke-linejoin="round"/>
<path d="M16.9167 13.0378C16.1091 13.0378 15.4544 13.6925 15.4544 14.5001V25.3751C15.4544 26.1827 16.1091 26.8373 16.9167 26.8373H25.375C26.1826 26.8373 26.8373 26.1827 26.8373 25.3751V14.5001C26.8373 13.6925 26.1826 13.0378 25.375 13.0378H16.9167ZM23.9128 23.9128H18.379V15.9623H23.9128V23.9128Z" fill="white" stroke="white" stroke-width="0.507861" stroke-linecap="round" stroke-linejoin="round"/>
<path d="M3.62496 17.8711C2.81737 17.8711 2.1627 18.5257 2.1627 19.3333L2.1627 25.375C2.1627 26.1826 2.81737 26.8373 3.62496 26.8373H12.0833C12.8909 26.8373 13.5456 26.1826 13.5456 25.375V19.3333C13.5456 18.5257 12.8909 17.8711 12.0833 17.8711H3.62496ZM10.621 23.9127H5.08722V20.7956H10.621V23.9127Z" fill="white" stroke="white" stroke-width="0.507861" stroke-linecap="round" stroke-linejoin="round"/>
</svg>
