<svg width="20" height="20" viewBox="0 0 20 20" fill="none" xmlns="http://www.w3.org/2000/svg">
<path d="M10 16.3207L5.15835 19.2374C4.94447 19.3735 4.72085 19.4318 4.48752 19.4124C4.25419 19.393 4.05002 19.3152 3.87502 19.1791C3.70002 19.043 3.56391 18.873 3.46669 18.6692C3.36947 18.4647 3.35002 18.236 3.40835 17.9832L4.69169 12.4707L0.404188 8.76657C0.209743 8.59157 0.08841 8.39207 0.0401878 8.16807C-0.00881222 7.94485 0.0055766 7.72629 0.0833544 7.5124C0.161132 7.29851 0.277799 7.12351 0.433354 6.9874C0.58891 6.85129 0.802799 6.76379 1.07502 6.7249L6.73336 6.22907L8.92085 1.0374C9.01808 0.804069 9.16897 0.629069 9.37352 0.512402C9.5773 0.395736 9.78613 0.337402 10 0.337402C10.2139 0.337402 10.4231 0.395736 10.6277 0.512402C10.8315 0.629069 10.982 0.804069 11.0792 1.0374L13.2667 6.22907L18.925 6.7249C19.1972 6.76379 19.4111 6.85129 19.5667 6.9874C19.7222 7.12351 19.8389 7.29851 19.9167 7.5124C19.9945 7.72629 20.0092 7.94485 19.961 8.16807C19.912 8.39207 19.7903 8.59157 19.5959 8.76657L15.3084 12.4707L16.5917 17.9832C16.65 18.236 16.6306 18.4647 16.5334 18.6692C16.4361 18.873 16.3 19.043 16.125 19.1791C15.95 19.3152 15.7459 19.393 15.5125 19.4124C15.2792 19.4318 15.0556 19.3735 14.8417 19.2374L10 16.3207Z" fill="white"/>
</svg>
