<svg width="27" height="21" viewBox="0 0 27 21" fill="none" xmlns="http://www.w3.org/2000/svg">
<path d="M11.8125 20.625C11.8125 20.625 10.125 20.625 10.125 18.9375C10.125 17.25 11.8125 12.1875 18.5625 12.1875C25.3125 12.1875 27 17.25 27 18.9375C27 20.625 25.3125 20.625 25.3125 20.625H11.8125ZM18.5625 10.5C19.9052 10.5 21.1928 9.96663 22.1422 9.01723C23.0916 8.06783 23.625 6.78016 23.625 5.4375C23.625 4.09484 23.0916 2.80718 22.1422 1.85777C21.1928 0.908369 19.9052 0.375 18.5625 0.375C17.2198 0.375 15.9322 0.908369 14.9828 1.85777C14.0334 2.80718 13.5 4.09484 13.5 5.4375C13.5 6.78016 14.0334 8.06783 14.9828 9.01723C15.9322 9.96663 17.2198 10.5 18.5625 10.5V10.5ZM8.802 20.625C8.55184 20.0982 8.42708 19.5206 8.4375 18.9375C8.4375 16.6509 9.585 14.2969 11.7045 12.66C10.6466 12.334 9.54441 12.1746 8.4375 12.1875C1.6875 12.1875 0 17.25 0 18.9375C0 20.625 1.6875 20.625 1.6875 20.625H8.802ZM7.59375 10.5C8.71263 10.5 9.78569 10.0555 10.5769 9.26436C11.368 8.47319 11.8125 7.40013 11.8125 6.28125C11.8125 5.16237 11.368 4.08931 10.5769 3.29814C9.78569 2.50697 8.71263 2.0625 7.59375 2.0625C6.47487 2.0625 5.40181 2.50697 4.61064 3.29814C3.81947 4.08931 3.375 5.16237 3.375 6.28125C3.375 7.40013 3.81947 8.47319 4.61064 9.26436C5.40181 10.0555 6.47487 10.5 7.59375 10.5V10.5Z" fill="white"/>
</svg>
