<svg width="154" height="154" viewBox="0 0 154 154" fill="none" xmlns="http://www.w3.org/2000/svg">
<path d="M68.3525 152.573L66.1205 152.384L66.9466 142.619L69.1786 142.808L68.6983 148.485L71.5738 144.556L71.8249 144.577L73.9993 148.934L74.4797 143.256L76.7117 143.445L75.8856 153.21L73.6536 153.021L71.3701 148.459L68.3525 152.573Z" fill="white"/>
<path d="M64.2138 145.351L62.5785 151.783L60.4076 151.231L61.9946 144.989C62.22 144.103 61.8352 143.533 60.8402 143.28C59.8452 143.027 59.235 143.344 59.0096 144.23L57.4226 150.472L55.2516 149.92L56.887 143.488C57.1423 142.484 57.6873 141.78 58.5219 141.376C59.3679 140.965 60.3201 140.894 61.3784 141.163C62.4367 141.432 63.2394 141.95 63.7864 142.715C64.3266 143.468 64.4691 144.347 64.2138 145.351Z" fill="white"/>
<path d="M52.0201 138.119C52.9229 138.5 53.6021 139.015 54.0577 139.663C54.5096 140.32 54.72 141.058 54.6887 141.875L52.4731 142.155C52.4643 141.169 52.0085 140.485 51.1058 140.103C50.289 139.758 49.7771 139.831 49.5701 140.321C49.4539 140.596 49.5 140.859 49.7084 141.109C49.9145 141.388 50.3301 141.772 50.9552 142.259C51.5939 142.761 52.0845 143.303 52.427 143.883C52.7884 144.563 52.7965 145.311 52.4515 146.128C52.0992 146.962 51.5211 147.503 50.7172 147.751C49.9047 147.995 49.0858 147.943 48.2604 147.594C47.521 147.282 46.942 146.83 46.5235 146.238C46.1013 145.654 45.8667 144.962 45.8197 144.162L47.9911 143.879C48.0236 144.713 48.3967 145.281 49.1103 145.583C49.4112 145.71 49.6749 145.745 49.9013 145.689C50.1277 145.632 50.2827 145.505 50.3663 145.308C50.4571 145.093 50.4356 144.856 50.3019 144.597C50.151 144.33 49.7888 143.964 49.2153 143.499L48.4914 142.874C48.3055 142.715 48.1052 142.493 47.8905 142.21C47.6463 141.925 47.485 141.659 47.4065 141.413C47.1827 140.792 47.2124 140.146 47.4957 139.475C47.8553 138.624 48.4517 138.075 49.285 137.83C50.1111 137.601 51.0228 137.697 52.0201 138.119Z" fill="white"/>
<path d="M46.4558 135.781L41.6314 144.311L39.6816 143.209L44.506 134.678L46.4558 135.781Z" fill="white"/>
<path d="M37.7307 130.03C38.9066 130.905 39.5944 132.021 39.7941 133.379C39.9863 134.732 39.648 135.992 38.7792 137.16C37.9104 138.329 36.8035 139.012 35.4584 139.21C34.1022 139.422 32.8324 139.089 31.6491 138.209C30.9451 137.685 30.416 137.036 30.0619 136.261C29.7022 135.493 29.5589 134.701 29.6321 133.883L31.8508 134.137C31.7947 134.572 31.8664 134.992 32.0659 135.396C32.2524 135.802 32.5479 136.156 32.9523 136.456C33.6563 136.98 34.373 137.181 35.1024 137.061C35.8262 136.948 36.4526 136.535 36.9817 135.824C37.5108 135.112 37.7253 134.394 37.6253 133.668C37.5308 132.935 37.1315 132.306 36.4275 131.783C36.0306 131.488 35.607 131.306 35.1569 131.239C34.6992 131.166 34.2766 131.219 33.8891 131.396L33.0071 129.344C33.7618 129.033 34.5613 128.935 35.4055 129.051C36.2441 129.175 37.0192 129.501 37.7307 130.03Z" fill="white"/>
<path d="M25.6446 126.93L22.232 123.394L22.8364 122.811C23.884 121.8 25.0444 121.315 26.3176 121.358C27.5709 121.406 28.6836 121.934 29.6559 122.942C30.7124 124.036 31.2381 125.286 31.233 126.692C31.2214 128.091 30.7019 129.287 29.6744 130.279C28.647 131.27 27.4338 131.754 26.0349 131.729C24.636 131.704 23.4342 131.171 22.4295 130.13C21.8008 129.479 21.3716 128.739 21.1421 127.91C20.8994 127.08 20.874 126.274 21.0661 125.492L23.1741 126.104C23.0812 126.505 23.1099 126.931 23.2604 127.383C23.3976 127.834 23.6477 128.248 24.0107 128.624C24.5875 129.221 25.2653 129.527 26.0439 129.541C26.8094 129.555 27.5044 129.26 28.1289 128.657C28.7333 128.074 29.0392 127.389 29.0465 126.604C29.0403 125.832 28.7132 125.11 28.065 124.438C27.1705 123.511 26.2278 123.26 25.2368 123.685L27.0549 125.569L25.6446 126.93Z" fill="white"/>
<path d="M20.873 112.212L22.2618 114.179L20.6971 117.546L21.3107 118.415L23.9412 116.558L25.2331 118.388L17.2272 124.04L14.9664 120.838C14.4281 120.075 14.2374 119.239 14.3943 118.328C14.5513 117.418 15.011 116.693 15.7734 116.155C16.2538 115.816 16.8005 115.636 17.4137 115.614C18.0214 115.585 18.5958 115.711 19.1367 115.991L20.873 112.212ZM16.6819 119.627L17.6509 120.999L19.7095 119.546L18.7406 118.173C18.563 117.922 18.3131 117.778 17.9911 117.743C17.6637 117.7 17.3551 117.781 17.0653 117.985C16.7756 118.19 16.5962 118.453 16.5271 118.776C16.4527 119.092 16.5043 119.375 16.6819 119.627Z" fill="white"/>
<path d="M15.9554 102.885L17.0597 105.073L15.9058 106.204L17.5464 109.453L19.1419 109.197L20.2462 111.384L9.99625 112.826L8.70902 110.277L15.9554 102.885ZM11.6397 110.397L15.3689 109.8L14.3341 107.75L11.6397 110.397Z" fill="white"/>
<path d="M3.79882 97.4022L3.13055 95.2642L12.4843 92.3405L13.1525 94.4785L7.71402 96.1784L12.4386 97.3565L12.5138 97.5971L9.30115 101.256L14.7397 99.5562L15.4079 101.694L6.05421 104.618L5.38595 102.48L8.74811 98.6421L3.79882 97.4022Z" fill="white"/>
<path d="M1.33358 70.3038L1.46214 68.0675L11.246 68.6299L11.1174 70.8662L5.42882 70.5392L9.43454 73.3077L9.42007 73.5592L5.1235 75.8504L10.8121 76.1775L10.6836 78.4138L0.899703 77.8513L1.02826 75.615L5.52774 73.2093L1.33358 70.3038Z" fill="white"/>
<path d="M8.4387 65.9945L1.96608 64.531L2.46009 62.3461L8.74153 63.7664C9.63367 63.9681 10.193 63.5683 10.4194 62.5669C10.6458 61.5655 10.3129 60.9639 9.42078 60.7622L3.13934 59.342L3.63335 57.1571L10.106 58.6206C11.1165 58.8491 11.8348 59.3751 12.261 60.1987C12.6942 61.0335 12.7904 61.9834 12.5496 63.0485C12.3088 64.1137 11.8132 64.9298 11.063 65.497C10.324 66.0571 9.44919 66.2229 8.4387 65.9945Z" fill="white"/>
<path d="M15.2883 53.7459C14.9342 54.6596 14.4399 55.3539 13.8054 55.8287C13.1622 56.3001 12.4315 56.5324 11.6134 56.5256L11.2673 54.3194C12.2531 54.2811 12.9231 53.8051 13.2773 52.8913C13.5977 52.0646 13.5099 51.5551 13.0138 51.3628C12.7354 51.2549 12.4742 51.3088 12.2304 51.5246C11.9571 51.739 11.5865 52.1659 11.1184 52.8053C10.6349 53.4587 10.1083 53.9653 9.53843 54.325C8.87002 54.7066 8.12245 54.7371 7.29571 54.4167C6.45157 54.0895 5.89349 53.5279 5.62148 52.7318C5.35285 51.927 5.38043 51.1068 5.70424 50.2714C5.99432 49.523 6.42907 48.9307 7.00849 48.4946C7.57921 48.0552 8.26371 47.8 9.06198 47.729L9.41019 49.891C8.57711 49.9485 8.02059 50.3384 7.74063 51.0607C7.62258 51.3653 7.59509 51.6299 7.65817 51.8545C7.72124 52.0792 7.85286 52.2303 8.05302 52.3079C8.27058 52.3922 8.50687 52.3636 8.76187 52.2222C9.02362 52.0634 9.37839 51.6904 9.8262 51.1033L10.4292 50.361C10.5831 50.1704 10.7984 49.9636 11.0751 49.7405C11.3532 49.4879 11.6139 49.3187 11.8574 49.2329C12.4718 48.9906 13.1185 49.001 13.7973 49.2641C14.6588 49.598 15.2249 50.1778 15.4955 51.0033C15.7487 51.8222 15.6796 52.7364 15.2883 53.7459Z" fill="white"/>
<path d="M17.473 48.0945L8.80398 43.5242L9.84861 41.5427L18.5177 46.113L17.473 48.0945Z" fill="white"/>
<path d="M22.9565 39.2233C22.1168 40.4242 21.0212 41.1443 19.6695 41.3836C18.3231 41.6153 17.0533 41.314 15.86 40.4797C14.6667 39.6454 13.9516 38.5589 13.7146 37.2202C13.4623 35.8708 13.7586 34.5918 14.6036 33.3832C15.1063 32.6642 15.7399 32.1164 16.5043 31.7398C17.261 31.3578 18.0493 31.1915 18.869 31.2407L18.6798 33.4658C18.2432 33.4225 17.8258 33.5065 17.4275 33.7177C17.027 33.916 16.6823 34.2216 16.3935 34.6347C15.8908 35.3537 15.7104 36.076 15.8522 36.8015C15.9864 37.5217 16.4169 38.1359 17.1435 38.6439C17.8702 39.152 18.5948 39.3454 19.3173 39.2242C20.0474 39.1083 20.6639 38.6909 21.1666 37.9719C21.45 37.5664 21.6188 37.1378 21.6728 36.6859C21.7322 36.2263 21.6677 35.8054 21.4794 35.4232L23.5044 34.4816C23.8374 35.2269 23.9583 36.0232 23.867 36.8704C23.768 37.7123 23.4645 38.4966 22.9565 39.2233Z" fill="white"/>
<path d="M25.6981 27.0629L29.1332 23.549L29.7338 24.1361C30.775 25.1539 31.2929 26.2998 31.2876 27.5736C31.2754 28.8278 30.78 29.9554 29.8014 30.9566C28.7379 32.0445 27.5035 32.6063 26.0981 32.642C24.6992 32.6711 23.4892 32.1866 22.468 31.1883C21.4469 30.1901 20.9284 28.9915 20.9125 27.5924C20.8966 26.1934 21.3943 24.9766 22.4055 23.9421C23.0384 23.2948 23.7659 22.8443 24.588 22.5907C25.41 22.324 26.2147 22.2753 27.002 22.4445L26.4519 24.5694C26.0484 24.4882 25.6232 24.5293 25.1762 24.6928C24.7291 24.8431 24.3229 25.1051 23.9575 25.4788C23.3768 26.0728 23.0909 26.7592 23.0998 27.5379C23.1085 28.3034 23.4232 28.9896 24.0439 29.5963C24.6445 30.1835 25.3375 30.4693 26.1227 30.4538C26.8946 30.4253 27.6068 30.0773 28.2592 29.4099C29.1596 28.4888 29.3831 27.5392 28.9298 26.5609L27.0997 28.433L25.6981 27.0629Z" fill="white"/>
<path d="M40.2381 21.8878L38.3123 23.3334L34.9013 21.8678L34.0504 22.5065L35.9835 25.0817L34.1921 26.4265L28.3086 18.5891L31.4435 16.2357C32.19 15.6754 33.0205 15.4603 33.9353 15.5906C34.85 15.7209 35.5875 16.1592 36.1478 16.9056C36.5009 17.3758 36.6971 17.9171 36.7366 18.5293C36.7835 19.136 36.6746 19.7138 36.4098 20.2627L40.2381 21.8878ZM32.7043 17.9151L31.3608 18.9237L32.8737 20.9391L34.2172 19.9305C34.4635 19.7456 34.5997 19.4916 34.6257 19.1687C34.6591 18.8401 34.5694 18.534 34.3564 18.2504C34.1435 17.9668 33.8746 17.7952 33.5498 17.7356C33.2325 17.6704 32.9506 17.7302 32.7043 17.9151Z" fill="white"/>
<path d="M49.3888 16.7061L47.2354 17.8746L46.0702 16.7548L42.8709 18.4908L43.1747 20.0781L41.0213 21.2465L39.2759 11.0438L41.7862 9.68167L49.3888 16.7061ZM41.753 12.6146L42.46 16.3245L44.478 15.2295L41.753 12.6146Z" fill="white"/>
<path d="M54.4179 4.41242L56.5348 3.67997L59.7392 12.9413L57.6223 13.6737L55.7592 8.28893L54.7241 13.0469L54.4859 13.1293L50.7316 10.0285L52.5948 15.4133L50.4779 16.1457L47.2735 6.88443L49.3903 6.15198L53.3278 9.39686L54.4179 4.41242Z" fill="white"/>
<path d="M81.3784 1.0965L83.6176 1.156L83.3573 10.9525L81.1181 10.893L81.2694 5.19706L78.6259 9.28628L78.3739 9.27959L75.9513 5.05575L75.7999 10.7517L73.5607 10.6922L73.821 0.895702L76.0602 0.955198L78.6037 5.37831L81.3784 1.0965Z" fill="white"/>
<path d="M85.9933 8.06615L87.2585 1.55188L89.4574 1.97898L88.2295 8.30083C88.0551 9.19872 88.4719 9.74554 89.4797 9.94129C90.4875 10.137 91.0786 9.78597 91.253 8.88809L92.4809 2.56623L94.6798 2.99332L93.4146 9.50758C93.217 10.5246 92.7132 11.2586 91.903 11.7098C91.0818 12.1683 90.1352 12.2934 89.0633 12.0852C87.9913 11.877 87.1604 11.4066 86.5706 10.6741C85.9882 9.95245 85.7957 9.08314 85.9933 8.06615Z" fill="white"/>
<path d="M98.4484 14.5332C97.5244 14.2067 96.8156 13.7334 96.322 13.1135C95.8314 12.4848 95.5773 11.7614 95.5595 10.9434L97.7543 10.5312C97.8222 11.5154 98.3182 12.1708 99.2422 12.4974C100.078 12.7928 100.585 12.6898 100.762 12.1882C100.862 11.9066 100.8 11.6472 100.577 11.41C100.354 11.1432 99.9165 10.7856 99.2633 10.3369C98.5956 9.87328 98.0735 9.36206 97.6968 8.80328C97.2954 8.14663 97.2424 7.40032 97.5378 6.56433C97.8395 5.71074 98.3841 5.13605 99.1717 4.84026C99.9681 4.54757 100.789 4.55052 101.633 4.8491C102.39 5.11657 102.995 5.53334 103.449 6.0994C103.905 6.65667 104.181 7.33319 104.276 8.12897L102.125 8.54195C102.043 7.71097 101.636 7.16641 100.906 6.90827C100.598 6.79941 100.332 6.77988 100.11 6.84968C99.8871 6.91947 99.74 7.05557 99.6685 7.25797C99.5907 7.47796 99.6263 7.71328 99.7753 7.96393C99.9419 8.22079 100.325 8.5642 100.926 8.99417L101.686 9.57461C101.881 9.72276 102.094 9.93176 102.325 10.2016C102.586 10.472 102.763 10.7275 102.856 10.9683C103.117 11.5752 103.126 12.2218 102.883 12.9082C102.575 13.7794 102.013 14.3626 101.196 14.6579C100.385 14.9356 99.4692 14.894 98.4484 14.5332Z" fill="white"/>
<path d="M104.123 16.5179L108.434 7.71724L110.446 8.7027L106.134 17.5034L104.123 16.5179Z" fill="white"/>
<path d="M113.215 21.7581C111.99 20.954 111.238 19.8799 110.959 18.5358C110.688 17.1968 110.952 15.9187 111.751 14.7015C112.55 13.4843 113.615 12.7377 114.946 12.4615C116.288 12.1698 117.575 12.4286 118.807 13.2378C119.541 13.7193 120.107 14.3365 120.506 15.0895C120.91 15.8348 121.099 16.6178 121.074 17.4386L118.844 17.3147C118.875 16.877 118.779 16.4622 118.556 16.0703C118.346 15.6757 118.03 15.3402 117.609 15.0636C116.876 14.5821 116.148 14.423 115.427 14.586C114.711 14.7412 114.11 15.1895 113.623 15.9307C113.137 16.672 112.965 17.4019 113.107 18.1205C113.244 18.847 113.68 19.4509 114.413 19.9324C114.827 20.2038 115.26 20.3599 115.713 20.4007C116.174 20.4466 116.593 20.3698 116.97 20.1704L117.97 22.1669C117.235 22.5216 116.443 22.6658 115.593 22.5993C114.749 22.5251 113.956 22.2447 113.215 21.7581Z" fill="white"/>
<path d="M125.484 24.1542L129.096 27.4857L128.527 28.1032C127.539 29.1735 126.409 29.7245 125.136 29.7562C123.882 29.7805 122.74 29.3181 121.711 28.3689C120.593 27.3376 119.995 26.12 119.919 24.7162C119.849 23.3187 120.298 22.0951 121.266 21.0454C122.234 19.9957 123.417 19.4425 124.815 19.386C126.213 19.3295 127.444 19.7916 128.507 20.7723C129.173 21.3861 129.644 22.1002 129.922 22.9146C130.212 23.7285 130.284 24.5314 130.138 25.3233L127.998 24.8352C128.068 24.4295 128.014 24.0057 127.838 23.5637C127.674 23.1211 127.401 22.7227 127.017 22.3683C126.406 21.8052 125.711 21.5393 124.933 21.5708C124.168 21.6017 123.492 21.9362 122.903 22.5743C122.334 23.1918 122.068 23.8928 122.107 24.6772C122.158 25.448 122.526 26.1497 123.212 26.7825C124.159 27.6557 125.115 27.8515 126.079 27.3699L124.155 25.595L125.484 24.1542Z" fill="white"/>
<path d="M130.97 38.3864L129.469 36.5037L130.834 33.0513L130.171 32.2194L127.653 34.2268L126.257 32.4754L133.919 26.3658L136.363 29.4308C136.945 30.1605 137.184 30.9845 137.081 31.9026C136.977 32.8208 136.56 33.5708 135.831 34.1526C135.371 34.5192 134.836 34.7311 134.225 34.7885C133.62 34.8531 133.039 34.761 132.483 34.5123L130.97 38.3864ZM134.721 30.74L133.674 29.4264L131.703 30.9975L132.751 32.311C132.943 32.5518 133.201 32.6805 133.524 32.6971C133.853 32.7209 134.157 32.6223 134.434 32.4012C134.711 32.1801 134.875 31.9063 134.925 31.5799C134.981 31.2608 134.913 30.9808 134.721 30.74Z" fill="white"/>
<path d="M136.452 47.3686L135.22 45.2506L136.305 44.0529L134.476 40.9062L132.898 41.2567L131.667 39.1387L141.813 37.0931L143.249 39.562L136.452 47.3686ZM140.316 39.6154L136.629 40.4315L137.783 42.4164L140.316 39.6154Z" fill="white"/>
<path d="M149.046 52.3649L149.834 54.4617L140.66 57.9087L139.872 55.8118L145.206 53.8077L140.423 52.8981L140.334 52.6622L143.335 48.8276L138.001 50.8318L137.213 48.7349L146.387 45.2879L147.175 47.3848L144.035 51.4063L149.046 52.3649Z" fill="white"/>
<path d="M152.606 86.0319L152.408 88.2632L142.647 87.3995L142.844 85.1682L148.52 85.6704L144.601 82.7798L144.624 82.5288L148.989 80.3711L143.313 79.8689L143.51 77.6376L153.272 78.5013L153.075 80.7326L148.503 82.9985L152.606 86.0319Z" fill="white"/>
<path d="M145.388 90.0794L151.813 91.7391L151.252 93.908L145.017 92.2972C144.131 92.0685 143.56 92.4511 143.303 93.4451C143.047 94.4392 143.361 95.0506 144.247 95.2793L150.482 96.8901L149.922 99.0589L143.497 97.3991C142.494 97.14 141.792 96.5923 141.391 95.7562C140.983 94.9086 140.916 93.9562 141.189 92.8989C141.462 91.8416 141.982 91.0409 142.749 90.4968C143.505 89.9594 144.384 89.8203 145.388 90.0794Z" fill="white"/>
<path d="M138.217 102.014C138.598 101.111 139.113 100.432 139.761 99.9762C140.418 99.5242 141.156 99.3139 141.973 99.3452L142.253 101.561C141.267 101.57 140.583 102.025 140.201 102.928C139.856 103.745 139.929 104.257 140.419 104.464C140.694 104.58 140.957 104.534 141.207 104.326C141.487 104.119 141.87 103.704 142.357 103.079C142.86 102.44 143.401 101.949 143.982 101.607C144.661 101.246 145.409 101.237 146.226 101.582C147.06 101.935 147.601 102.513 147.849 103.317C148.093 104.129 148.041 104.948 147.693 105.773C147.38 106.513 146.928 107.092 146.336 107.51C145.752 107.933 145.06 108.167 144.26 108.214L143.977 106.043C144.811 106.01 145.379 105.637 145.681 104.924C145.808 104.623 145.843 104.359 145.787 104.133C145.731 103.906 145.604 103.751 145.406 103.668C145.191 103.577 144.954 103.598 144.695 103.732C144.428 103.883 144.063 104.245 143.597 104.819L142.973 105.542C142.813 105.728 142.592 105.929 142.308 106.143C142.023 106.388 141.757 106.549 141.511 106.627C140.89 106.851 140.244 106.821 139.573 106.538C138.722 106.179 138.174 105.582 137.928 104.749C137.699 103.923 137.796 103.011 138.217 102.014Z" fill="white"/>
<path d="M135.933 107.503L144.464 112.328L143.361 114.278L134.831 109.453L135.933 107.503Z" fill="white"/>
<path d="M130.178 116.272C131.052 115.096 132.168 114.408 133.527 114.208C134.879 114.016 136.14 114.355 137.308 115.223C138.476 116.092 139.159 117.199 139.357 118.544C139.57 119.9 139.236 121.17 138.356 122.353C137.833 123.058 137.184 123.587 136.409 123.941C135.641 124.3 134.848 124.444 134.03 124.37L134.284 122.152C134.72 122.208 135.139 122.136 135.543 121.937C135.95 121.75 136.303 121.455 136.604 121.05C137.127 120.346 137.329 119.63 137.208 118.9C137.095 118.176 136.683 117.55 135.971 117.021C135.26 116.492 134.541 116.277 133.815 116.377C133.082 116.472 132.454 116.871 131.93 117.575C131.635 117.972 131.454 118.396 131.387 118.846C131.314 119.303 131.366 119.726 131.543 120.113L129.492 120.995C129.18 120.241 129.083 119.441 129.199 118.597C129.322 117.758 129.649 116.983 130.178 116.272Z" fill="white"/>
<path d="M127.076 128.389L123.541 131.802L122.957 131.197C121.946 130.15 121.462 128.989 121.504 127.716C121.553 126.463 122.081 125.35 123.088 124.378C124.183 123.321 125.433 122.796 126.839 122.801C128.238 122.812 129.433 123.332 130.425 124.359C131.417 125.387 131.9 126.6 131.875 127.999C131.851 129.398 131.318 130.6 130.277 131.604C129.625 132.233 128.885 132.662 128.056 132.892C127.227 133.134 126.421 133.16 125.639 132.968L126.25 130.86C126.651 130.953 127.078 130.924 127.529 130.773C127.98 130.636 128.394 130.386 128.77 130.023C129.368 129.446 129.674 128.769 129.687 127.99C129.701 127.224 129.406 126.529 128.804 125.905C128.22 125.301 127.536 124.995 126.75 124.987C125.978 124.993 125.256 125.321 124.585 125.969C123.658 126.863 123.407 127.806 123.831 128.797L125.715 126.979L127.076 128.389Z" fill="white"/>
<path d="M112.508 133.077L114.475 131.688L117.842 133.252L118.711 132.639L116.854 130.008L118.684 128.716L124.336 136.722L121.133 138.983C120.371 139.521 119.534 139.712 118.624 139.555C117.713 139.398 116.989 138.939 116.451 138.176C116.111 137.696 115.931 137.149 115.91 136.536C115.88 135.928 116.006 135.354 116.287 134.813L112.508 133.077ZM119.922 137.268L121.295 136.299L119.841 134.24L118.469 135.209C118.217 135.387 118.074 135.636 118.038 135.958C117.995 136.286 118.076 136.594 118.281 136.884C118.485 137.174 118.749 137.353 119.072 137.422C119.387 137.497 119.671 137.445 119.922 137.268Z" fill="white"/>
<path d="M103.15 138.057L105.337 136.952L106.468 138.106L109.718 136.466L109.461 134.87L111.648 133.766L113.091 144.016L110.541 145.303L103.15 138.057ZM110.661 142.372L110.064 138.643L108.015 139.678L110.661 142.372Z" fill="white"/>
<path d="M97.3799 150.331L95.2394 150.991L92.3511 141.626L94.4916 140.966L96.171 146.411L97.3669 141.691L97.6077 141.617L101.255 144.843L99.5753 139.398L101.716 138.738L104.604 148.103L102.464 148.763L98.6385 145.386L97.3799 150.331Z" fill="white"/>
<circle cx="147.524" cy="66.2949" r="1.5" transform="rotate(25.5193 147.524 66.2949)" fill="white"/>
<circle cx="65.0346" cy="6.96937" r="1.5" transform="rotate(25.5193 65.0346 6.96937)" fill="white"/>
<circle cx="7.47315" cy="88.0847" r="1.5" transform="rotate(25.5193 7.47315 88.0847)" fill="white"/>
<circle cx="86.3935" cy="147.923" r="1.5" transform="rotate(25.5193 86.3935 147.923)" fill="white"/>
</svg>
